<svg width="128" height="26" viewBox="0 0 128 26" fill="none" xmlns="http://www.w3.org/2000/svg">
<path d="M11.284 21.128H10.816C10.6773 21.4227 10.504 21.7087 10.296 21.986C10.1053 22.246 9.84533 22.48 9.516 22.688C9.204 22.896 8.82267 23.0607 8.372 23.182C7.93867 23.3033 7.41 23.364 6.786 23.364C5.98867 23.364 5.24333 23.2253 4.55 22.948C3.874 22.6533 3.276 22.2287 2.756 21.674C2.25333 21.102 1.85467 20.4087 1.56 19.594C1.28267 18.7793 1.144 17.8433 1.144 16.786V16.318C1.144 15.278 1.29133 14.3507 1.586 13.536C1.898 12.7213 2.314 12.0367 2.834 11.482C3.37133 10.91 3.98667 10.4767 4.68 10.182C5.39067 9.88733 6.136 9.74 6.916 9.74C7.956 9.74 8.77933 9.93933 9.386 10.338C9.99267 10.7193 10.4693 11.2653 10.816 11.976H11.284V4.8H14.56V23H11.284V21.128ZM7.852 20.244C8.87467 20.244 9.698 19.9233 10.322 19.282C10.9633 18.6233 11.284 17.7653 11.284 16.708V16.396C11.284 15.3387 10.9633 14.4893 10.322 13.848C9.698 13.1893 8.87467 12.86 7.852 12.86C6.82933 12.86 5.99733 13.1807 5.356 13.822C4.732 14.446 4.42 15.304 4.42 16.396V16.708C4.42 17.8 4.732 18.6667 5.356 19.308C5.99733 19.932 6.82933 20.244 7.852 20.244ZM20.8339 17.618C20.8513 17.9993 20.9379 18.3547 21.0939 18.684C21.2673 18.996 21.4926 19.2733 21.7699 19.516C22.0646 19.7413 22.3939 19.9233 22.7579 20.062C23.1393 20.1833 23.5379 20.244 23.9539 20.244C24.7686 20.244 25.3926 20.1053 25.8259 19.828C26.2593 19.5333 26.5713 19.1867 26.7619 18.788L29.5699 20.348C29.4139 20.6773 29.1973 21.024 28.9199 21.388C28.6426 21.7347 28.2786 22.0553 27.8279 22.35C27.3946 22.6447 26.8573 22.8873 26.2159 23.078C25.5919 23.2687 24.8553 23.364 24.0059 23.364C23.0353 23.364 22.1513 23.208 21.3539 22.896C20.5566 22.584 19.8633 22.1333 19.2739 21.544C18.7019 20.9547 18.2513 20.2353 17.9219 19.386C17.6099 18.5367 17.4539 17.5747 17.4539 16.5V16.344C17.4539 15.356 17.6186 14.4547 17.9479 13.64C18.2946 12.8253 18.7626 12.132 19.3519 11.56C19.9413 10.988 20.6259 10.546 21.4059 10.234C22.2033 9.90467 23.0526 9.74 23.9539 9.74C25.0633 9.74 26.0166 9.93933 26.8139 10.338C27.6113 10.7193 28.2699 11.2133 28.7899 11.82C29.3099 12.4093 29.6913 13.068 29.9339 13.796C30.1766 14.5067 30.2979 15.2 30.2979 15.876V17.618H20.8339ZM23.9279 12.704C23.0959 12.704 22.4199 12.9207 21.8999 13.354C21.3799 13.77 21.0419 14.2553 20.8859 14.81H26.9699C26.8659 14.2033 26.5366 13.7007 25.9819 13.302C25.4446 12.9033 24.7599 12.704 23.9279 12.704ZM32.9578 10.104H36.4938L39.5358 21.44H40.0038L43.0458 10.104H46.5818L42.8898 23H36.6498L32.9578 10.104ZM57.7438 6.256C57.7438 5.92667 57.8044 5.61467 57.9258 5.32C58.0644 5.008 58.2464 4.748 58.4718 4.54C58.6971 4.31467 58.9571 4.14133 59.2518 4.02C59.5464 3.88133 59.8671 3.812 60.2138 3.812C60.8898 3.812 61.4618 4.05467 61.9298 4.54C62.4151 5.008 62.6578 5.58 62.6578 6.256C62.6578 6.60267 62.5884 6.92333 62.4498 7.218C62.3284 7.51267 62.1551 7.77267 61.9298 7.998C61.7218 8.22333 61.4618 8.40533 61.1498 8.544C60.8551 8.66533 60.5431 8.726 60.2138 8.726C59.8671 8.726 59.5464 8.66533 59.2518 8.544C58.9571 8.40533 58.6971 8.22333 58.4718 7.998C58.2464 7.77267 58.0644 7.51267 57.9258 7.218C57.8044 6.92333 57.7438 6.60267 57.7438 6.256ZM48.3838 10.104H51.4258V7.452C51.4258 6.70667 51.6771 6.08267 52.1798 5.58C52.6824 5.06 53.3064 4.8 54.0518 4.8H56.4958V7.92H55.4038C54.9358 7.92 54.7018 8.18 54.7018 8.7V10.104H61.8518V23H58.5758V13.224H54.7018V23H51.4258V13.224H48.3838V10.104ZM68.9837 23H65.7077V10.104H68.9837V12.028H69.4517C69.7464 11.3 70.223 10.7367 70.8817 10.338C71.5404 9.93933 72.3117 9.74 73.1957 9.74C73.8197 9.74 74.4004 9.844 74.9377 10.052C75.4924 10.2427 75.9777 10.546 76.3937 10.962C76.8097 11.378 77.1304 11.9067 77.3557 12.548C77.5984 13.1893 77.7197 13.952 77.7197 14.836V23H74.4437V15.668C74.4437 14.7493 74.2184 14.03 73.7677 13.51C73.3344 12.9727 72.7017 12.704 71.8697 12.704C70.899 12.704 70.171 13.0333 69.6857 13.692C69.2177 14.3333 68.9837 15.2 68.9837 16.292V23ZM90.8836 21.128H90.4156C90.2769 21.4227 90.1036 21.7087 89.8956 21.986C89.7049 22.246 89.4449 22.48 89.1156 22.688C88.8036 22.896 88.4223 23.0607 87.9716 23.182C87.5383 23.3033 87.0096 23.364 86.3856 23.364C85.5883 23.364 84.8429 23.2253 84.1496 22.948C83.4736 22.6533 82.8756 22.2287 82.3556 21.674C81.8529 21.102 81.4543 20.4087 81.1596 19.594C80.8823 18.7793 80.7436 17.8433 80.7436 16.786V16.318C80.7436 15.278 80.8909 14.3507 81.1856 13.536C81.4976 12.7213 81.9136 12.0367 82.4336 11.482C82.9709 10.91 83.5863 10.4767 84.2796 10.182C84.9903 9.88733 85.7356 9.74 86.5156 9.74C87.5556 9.74 88.3789 9.93933 88.9856 10.338C89.5923 10.7193 90.0689 11.2653 90.4156 11.976H90.8836V4.8H94.1596V23H90.8836V21.128ZM87.4516 20.244C88.4743 20.244 89.2976 19.9233 89.9216 19.282C90.5629 18.6233 90.8836 17.7653 90.8836 16.708V16.396C90.8836 15.3387 90.5629 14.4893 89.9216 13.848C89.2976 13.1893 88.4743 12.86 87.4516 12.86C86.4289 12.86 85.5969 13.1807 84.9556 13.822C84.3316 14.446 84.0196 15.304 84.0196 16.396V16.708C84.0196 17.8 84.3316 18.6667 84.9556 19.308C85.5969 19.932 86.4289 20.244 87.4516 20.244ZM100.434 17.618C100.451 17.9993 100.538 18.3547 100.694 18.684C100.867 18.996 101.092 19.2733 101.37 19.516C101.664 19.7413 101.994 19.9233 102.358 20.062C102.739 20.1833 103.138 20.244 103.554 20.244C104.368 20.244 104.992 20.1053 105.426 19.828C105.859 19.5333 106.171 19.1867 106.362 18.788L109.17 20.348C109.014 20.6773 108.797 21.024 108.52 21.388C108.242 21.7347 107.878 22.0553 107.428 22.35C106.994 22.6447 106.457 22.8873 105.816 23.078C105.192 23.2687 104.455 23.364 103.606 23.364C102.635 23.364 101.751 23.208 100.954 22.896C100.156 22.584 99.4629 22.1333 98.8735 21.544C98.3015 20.9547 97.8509 20.2353 97.5215 19.386C97.2095 18.5367 97.0535 17.5747 97.0535 16.5V16.344C97.0535 15.356 97.2182 14.4547 97.5475 13.64C97.8942 12.8253 98.3622 12.132 98.9515 11.56C99.5409 10.988 100.226 10.546 101.006 10.234C101.803 9.90467 102.652 9.74 103.554 9.74C104.663 9.74 105.616 9.93933 106.414 10.338C107.211 10.7193 107.87 11.2133 108.39 11.82C108.91 12.4093 109.291 13.068 109.534 13.796C109.776 14.5067 109.898 15.2 109.898 15.876V17.618H100.434ZM103.528 12.704C102.696 12.704 102.02 12.9207 101.5 13.354C100.98 13.77 100.642 14.2553 100.486 14.81H106.57C106.466 14.2033 106.136 13.7007 105.582 13.302C105.044 12.9033 104.36 12.704 103.528 12.704ZM112.843 10.104H118.303V11.976H118.771C119.014 11.2653 119.421 10.7193 119.993 10.338C120.583 9.93933 121.285 9.74 122.099 9.74C123.382 9.74 124.413 10.1473 125.193 10.962C125.973 11.7593 126.363 12.9813 126.363 14.628V15.2L122.983 15.512V15.148C122.983 14.4373 122.801 13.874 122.437 13.458C122.073 13.0247 121.527 12.808 120.799 12.808C120.071 12.808 119.499 13.0593 119.083 13.562C118.667 14.0647 118.459 14.784 118.459 15.72V19.88H121.423V23H112.531V19.88H115.183V13.224H112.843V10.104Z" fill="#141D2F"/>
</svg>
