<svg width="100" height="100" viewBox="0 0 100 100" fill="none" xmlns="http://www.w3.org/2000/svg">
<path d="M1.8454 36.2917C1.68308 33.9601 3.43323 31.9378 5.75447 31.7748L32.4092 29.9026C34.7304 29.7395 36.7437 31.4975 36.9061 33.8291L38.9377 63.0132C39.1 65.3447 37.3498 67.367 35.0287 67.5301L8.37395 69.4023C6.0527 69.5653 4.03939 67.8073 3.87708 65.4758L1.8454 36.2917Z" fill="#482307"/>
<path d="M28.8506 56.3592C28.9043 56.4504 28.9348 56.5512 28.9425 56.6616C28.9503 56.7718 28.903 56.886 28.8009 57.0042C28.7132 57.1053 28.5989 57.1609 28.4576 57.1707L23.6326 57.5097C23.1463 57.5439 22.794 57.3547 22.5762 56.9425L20.2377 52.5691L19.2727 52.6368L19.5869 57.1523C19.5991 57.3257 19.5467 57.4799 19.43 57.6149C19.3132 57.7497 19.1686 57.8232 18.9959 57.8354L14.3828 58.1594C14.2101 58.1715 14.0567 58.1189 13.9224 58.0017C13.7881 57.8843 13.7149 57.739 13.7029 57.5656L12.6396 42.2931C12.6276 42.1198 12.6799 41.9656 12.7967 41.8307C12.9134 41.6958 13.0581 41.6223 13.2307 41.6102L20.1976 41.1208C22.457 40.9621 24.2579 41.3504 25.6002 42.2855C26.9414 43.2051 27.6785 44.6184 27.8112 46.5254C27.9428 48.4167 27.1992 49.9656 25.5804 51.1722L28.8506 56.3592ZM18.7854 45.6388L18.96 48.1449L20.6781 48.0242C21.0234 48 21.2823 47.8709 21.4553 47.637C21.6272 47.3873 21.701 47.0891 21.6768 46.7425C21.6528 46.3957 21.5377 46.1028 21.3319 45.8639C21.1406 45.6081 20.8646 45.4929 20.5037 45.5182L18.7854 45.6388Z" fill="white"/>
<path d="M33.4203 33.9278C33.5826 31.5963 35.5959 29.8383 37.9172 30.0013L65.8753 31.9651C68.1966 32.1281 69.9468 34.1504 69.7845 36.482L67.7528 65.6661C67.5905 67.9976 65.5771 69.7556 63.2559 69.5926L35.2978 67.6288C32.9765 67.4658 31.2263 65.4435 31.3886 63.1118L33.4203 33.9278Z" fill="#E15549"/>
<path d="M53.7206 41.4719L58.3337 41.7959C58.5064 41.808 58.651 41.8815 58.7678 42.0164C58.8845 42.1514 58.9369 42.3055 58.9247 42.4789L57.8616 57.7514C57.8495 57.9248 57.7763 58.0701 57.642 58.1874C57.5077 58.3046 57.3543 58.3572 57.1817 58.345L52.5685 58.0211C52.3959 58.0089 52.2512 57.9354 52.1344 57.8005C52.0177 57.6656 51.9653 57.5115 51.9775 57.3381L52.3329 52.2315L48.52 51.9637L48.1645 57.0703C48.1525 57.2437 48.0793 57.389 47.945 57.5062C47.8106 57.6236 47.6572 57.6761 47.4846 57.664L42.8714 57.3399C42.6988 57.3278 42.5535 57.2622 42.4357 57.143C42.319 57.0081 42.2672 56.8462 42.2803 56.657L43.3435 41.3844C43.3557 41.2111 43.4289 41.0658 43.5632 40.9485C43.6974 40.8312 43.8509 40.7786 44.0235 40.7908L48.6367 41.1148C48.8093 41.1269 48.954 41.2004 49.0707 41.3353C49.1875 41.4702 49.2397 41.6244 49.2277 41.7978L48.8821 46.7625L52.6951 47.0304L53.0407 42.0656C53.0527 41.8922 53.1259 41.7469 53.2602 41.6296C53.3945 41.5123 53.5479 41.4597 53.7206 41.4719Z" fill="white"/>
<path d="M62.7453 36.2611C62.583 33.9295 64.3332 31.9072 66.6543 31.7441L92.0056 29.9635C94.3268 29.8004 96.3401 31.5584 96.5025 33.89L98.5341 63.074C98.6964 65.4057 96.9463 67.428 94.6251 67.591L69.2738 69.3717C66.9526 69.5347 64.9393 67.7767 64.777 65.4452L62.7453 36.2611Z" fill="#482307"/>
<path d="M73.1491 41.6485L86.9416 40.6797C87.1142 40.6676 87.2676 40.7201 87.4019 40.8374C87.5363 40.9547 87.6094 41.1 87.6215 41.2734L87.8865 45.0796C87.8986 45.253 87.8462 45.4072 87.7295 45.5422C87.6127 45.677 87.4681 45.7505 87.2955 45.7627L83.3884 46.0371L84.1422 56.865C84.1542 57.0384 84.102 57.1924 83.9851 57.3274C83.8685 57.4623 83.7237 57.5358 83.5511 57.548L78.8438 57.8786C78.6712 57.8907 78.5178 57.8381 78.3835 57.7209C78.2491 57.6035 78.176 57.4582 78.1638 57.2848L77.4101 46.457L73.5031 46.7314C73.3305 46.7435 73.1769 46.691 73.0426 46.5737C72.9083 46.4565 72.8351 46.3112 72.8231 46.1378L72.5581 42.3314C72.5461 42.158 72.5983 42.0039 72.7151 41.869C72.8318 41.7341 72.9766 41.6606 73.1491 41.6485Z" fill="white"/>
</svg>
